<?xml version="1.0" standalone="no"?>
<!DOCTYPE svg PUBLIC "-//W3C//DTD SVG 20010904//EN"
 "http://www.w3.org/TR/2001/REC-SVG-20010904/DTD/svg10.dtd">
<svg version="1.0" xmlns="http://www.w3.org/2000/svg"
 width="594.000000pt" height="870.000000pt" viewBox="0 0 594.000000 870.000000"
 preserveAspectRatio="xMidYMid meet">

<g transform="translate(0.000000,870.000000) scale(0.100000,-0.100000)"
fill="#000000" stroke="none">
<path d="M2548 8693 l-328 -3 0 -60 c0 -33 -4 -60 -9 -60 -5 0 -12 -137 -16
-305 -4 -168 -11 -305 -16 -305 -5 0 -9 -131 -9 -295 0 -162 -4 -295 -8 -295
-5 0 -12 -134 -16 -297 -3 -164 -11 -316 -16 -338 -5 -22 -10 -158 -10 -302 0
-169 -4 -263 -10 -263 -6 0 -10 -84 -10 -232 0 -130 -7 -295 -15 -373 -8 -79
-15 -243 -15 -377 0 -152 -4 -238 -10 -238 -6 0 -10 -94 -10 -263 0 -150 -4
-277 -10 -297 -6 -19 -13 -164 -17 -322 -3 -159 -10 -288 -15 -288 -4 0 -8
-126 -8 -279 l0 -279 -22 -5 c-13 -4 -264 -6 -559 -7 l-536 0 -6 247 c-4 137
-7 667 -7 1179 0 841 -2 932 -16 938 -15 6 -711 9 -716 4 -2 -2 -5 -534 -8
-1183 l-5 -1180 -57 -3 -58 -3 0 -189 0 -190 65 0 65 0 0 -1160 0 -1160 370 0
370 0 0 1160 0 1160 545 0 545 0 0 -85 c0 -50 -4 -85 -10 -85 -6 0 -10 -100
-10 -280 0 -154 -4 -280 -8 -280 -5 0 -12 -114 -15 -253 -4 -138 -11 -270 -17
-292 -5 -22 -10 -151 -10 -287 0 -159 -4 -248 -10 -248 -6 0 -10 -108 -10
-305 0 -197 4 -305 10 -305 6 0 10 -17 10 -38 0 -21 7 -47 15 -58 8 -10 15
-34 15 -51 0 -18 4 -33 10 -33 5 0 12 -11 16 -25 3 -14 10 -25 15 -25 5 0 9
-11 9 -25 0 -14 4 -25 10 -25 5 0 12 -11 16 -25 3 -14 10 -25 15 -25 5 0 9 -7
9 -15 0 -8 6 -15 13 -15 7 0 19 -9 27 -20 14 -20 26 -20 892 -20 l878 0 40 39
c22 21 40 43 40 49 0 6 5 12 10 14 6 2 12 13 13 26 0 12 7 22 14 22 7 0 13 11
13 25 0 14 4 25 10 25 5 0 12 16 16 35 3 19 10 35 15 35 5 0 9 20 9 44 0 27 5
46 13 49 16 5 14 800 -2 805 -7 2 -11 81 -11 235 -1 128 -5 252 -11 277 -6 25
-13 167 -16 315 -3 149 -9 272 -13 275 -4 3 -11 122 -15 265 -5 173 -11 263
-19 268 -34 23 49 27 557 27 l537 0 0 -1155 c0 -1089 1 -1155 18 -1163 9 -5
173 -7 380 -4 l362 5 0 1158 0 1159 65 0 65 0 0 190 0 190 -64 0 -65 0 -3
1168 c-3 1078 -4 1170 -20 1185 -15 15 -52 17 -364 17 -319 0 -348 -1 -360
-17 -11 -15 -13 -231 -14 -1185 l0 -1168 -549 0 -548 0 -7 68 c-4 37 -11 105
-16 152 -5 47 -9 187 -9 313 -1 125 -5 227 -9 227 -5 0 -12 132 -16 293 -4
168 -11 293 -17 295 -5 2 -9 114 -9 275 0 160 -5 288 -11 312 -6 22 -13 169
-16 328 -3 158 -9 287 -13 287 -4 0 -10 136 -14 303 -4 183 -10 303 -16 305
-6 2 -10 103 -10 265 0 157 -5 278 -11 302 -6 22 -13 167 -16 323 -3 155 -8
282 -12 282 -4 0 -11 134 -14 297 -4 189 -10 299 -17 301 -6 2 -10 97 -10 272
l0 268 -22 6 c-22 5 -366 5 -1130 -1z"/>
</g>
</svg>
